<?xml version="1.0" encoding="UTF-8"?>
<svg version="1.1" xmlns="http://www.w3.org/2000/svg" width="1497" height="1287">
<path d="M0 0 C494.01 0 988.02 0 1497 0 C1497 424.71 1497 849.42 1497 1287 C1002.99 1287 508.98 1287 0 1287 C0 862.29 0 437.58 0 0 Z " fill="#FEFEFE" transform="translate(0,0)"/>
<path d="M0 0 C1.49128145 1.04251543 2.97275234 2.09917252 4.4453125 3.16796875 C5.66069702 4.02467163 5.66069702 4.02467163 6.90063477 4.89868164 C8.60671928 6.1024655 10.30891117 7.3117837 12.00732422 8.52636719 C15.32770714 10.89599082 18.67439013 13.22682422 22.02124023 15.55883789 C25.37516885 17.89786145 28.72108825 20.24821858 32.06738281 22.59814453 C36.17026887 25.47880917 40.2762633 28.35502937 44.3828125 31.23046875 C45.60859009 32.08886353 45.60859009 32.08886353 46.85913086 32.96459961 C53.25436761 37.44045731 59.66087155 41.89998218 66.0703125 46.35546875 C75.76717896 53.09619054 85.44740433 59.86028265 95.11865234 66.63769531 C99.26817678 69.54508965 103.41933556 72.45014876 107.5703125 75.35546875 C109.23698681 76.5221245 110.90365348 77.68879116 112.5703125 78.85546875 C113.8078125 79.72171875 113.8078125 79.72171875 115.0703125 80.60546875 C128.8203125 90.23046875 128.8203125 90.23046875 142.5703125 99.85546875 C143.80817505 100.72196045 143.80817505 100.72196045 145.07104492 101.60595703 C146.73530078 102.77095239 148.39952611 103.93599135 150.0637207 105.10107422 C154.26702173 108.04367286 158.47087431 110.98547779 162.67578125 113.92578125 C171.17841715 119.87241004 179.67121956 125.83225777 188.14404297 131.82128906 C196.08511058 137.43132284 204.05396569 143.0015711 212.02197266 148.57324219 C216.2057431 151.49923608 220.38795774 154.42745185 224.5703125 157.35546875 C226.23697152 158.52214634 227.90363819 159.688813 229.5703125 160.85546875 C254.5703125 178.35546875 254.5703125 178.35546875 279.5703125 195.85546875 C280.80817505 196.72196045 280.80817505 196.72196045 282.07104492 197.60595703 C283.73530078 198.77095239 285.39952611 199.93599135 287.0637207 201.10107422 C291.26702173 204.04367286 295.47087431 206.98547779 299.67578125 209.92578125 C301.36983626 211.11061332 303.06384692 212.29550882 304.7578125 213.48046875 C306.00256348 214.35119019 306.00256348 214.35119019 307.27246094 215.23950195 C313.33044166 219.48020766 319.36992262 223.74656818 325.40551758 228.01904297 C330.22398929 231.42293317 335.07660052 234.77394062 339.9453125 238.10546875 C364.66436287 255.05558869 364.66436287 255.05558869 369.8828125 267.48046875 C372.53944554 282.45421863 369.04142684 291.18157517 360.71484375 303.29296875 C360.00714844 304.30359375 359.29945313 305.31421875 358.5703125 306.35546875 C357.89355469 307.34546875 357.21679688 308.33546875 356.51953125 309.35546875 C350.1773771 318.4192075 342.88391446 326.16371929 331.5703125 328.35546875 C313.14455499 329.742067 301.54130799 319.8437847 287.21875 309.65625 C282.4153759 306.23999562 277.58872268 302.85763063 272.7578125 299.48046875 C271.5039978 298.60346313 271.5039978 298.60346313 270.22485352 297.70874023 C268.52286603 296.51827815 266.82079872 295.32793019 265.11865234 294.13769531 C260.9348819 291.21170142 256.75266726 288.28348565 252.5703125 285.35546875 C250.90365348 284.18879116 249.23698681 283.0221245 247.5703125 281.85546875 C137.57031249 204.85546874 137.57031249 204.85546874 135.07104492 203.10595703 C133.40196743 201.93761908 131.73285928 200.76932491 130.0637207 199.60107422 C125.93368912 196.71033386 121.80416804 193.81887021 117.67578125 190.92578125 C108.81823624 184.71985799 99.95072321 178.52863594 91.0703125 172.35546875 C81.37344604 165.61474696 71.69322067 158.85065485 62.02197266 152.07324219 C59.54244393 150.33594244 57.06234855 148.59945495 54.58203125 146.86328125 C53.75445312 146.28384766 52.926875 145.70441406 52.07421875 145.10742188 C50.41473634 143.94630197 48.75458752 142.78613389 47.09375 141.62695312 C42.77318231 138.60935979 38.46819987 135.57239151 34.18359375 132.50390625 C33.29607422 131.87226563 32.40855469 131.240625 31.49414062 130.58984375 C29.80984756 129.39055654 28.12981262 128.18525564 26.45507812 126.97265625 C16.67709926 120.03397334 7.69928809 116.27832128 -4.4296875 117.35546875 C-14.14172907 119.93732002 -19.61284722 125.14161339 -25.2421875 133.16796875 C-26.07762085 134.34190186 -26.07762085 134.34190186 -26.92993164 135.53955078 C-28.77325452 138.1379178 -30.60335098 140.74513697 -32.4296875 143.35546875 C-33.06938477 144.2695752 -33.70908203 145.18368164 -34.36816406 146.12548828 C-37.7383755 150.94923876 -41.09715814 155.78080924 -44.44921875 160.6171875 C-48.13598969 165.93637819 -51.84088696 171.24262424 -55.5546875 176.54296875 C-56.12437256 177.35620605 -56.69405762 178.16944336 -57.28100586 179.00732422 C-58.42454224 180.63955552 -59.56817788 182.27171729 -60.71191406 183.90380859 C-63.6193084 188.05333303 -66.52436751 192.20449181 -69.4296875 196.35546875 C-70.59634325 198.02214306 -71.76300991 199.68880973 -72.9296875 201.35546875 C-73.7959375 202.59296875 -73.7959375 202.59296875 -74.6796875 203.85546875 C-84.3046875 217.60546875 -84.3046875 217.60546875 -93.9296875 231.35546875 C-94.50734863 232.18071045 -95.08500977 233.00595215 -95.68017578 233.85620117 C-96.84517114 235.52045703 -98.0102101 237.18468236 -99.17529297 238.84887695 C-102.11789161 243.05217798 -105.05969654 247.25603056 -108 251.4609375 C-113.41849043 259.20832394 -118.84403884 266.95022733 -124.3046875 274.66796875 C-129.69821557 282.29336417 -135.03292034 289.95907747 -140.36230469 297.62939453 C-146.4582873 306.40198065 -152.58124014 315.15544531 -158.71191406 323.90380859 C-161.6193084 328.05333303 -164.52436751 332.20449181 -167.4296875 336.35546875 C-168.59634325 338.02214306 -169.76300991 339.68880973 -170.9296875 341.35546875 C-171.5071875 342.18046875 -172.0846875 343.00546875 -172.6796875 343.85546875 C-174.4296875 346.35546875 -176.1796875 348.85546875 -177.9296875 351.35546875 C-178.7961792 352.5933313 -178.7961792 352.5933313 -179.68017578 353.85620117 C-180.84517114 355.52045703 -182.0102101 357.18468236 -183.17529297 358.84887695 C-186.11789161 363.05217798 -189.05969654 367.25603056 -192 371.4609375 C-197.46145394 379.26985849 -202.92978192 387.07357031 -208.4296875 394.85546875 C-209.89737414 396.93440195 -211.36478185 399.01353163 -212.83203125 401.09277344 C-213.96924821 402.70336738 -215.10736515 404.31332603 -216.24609375 405.92285156 C-218.14369389 408.6065725 -220.03701639 411.29327008 -221.9296875 413.98046875 C-222.5175 414.80998047 -223.1053125 415.63949219 -223.7109375 416.49414062 C-231.80585059 428.00877974 -235.2084382 436.5089891 -233.0390625 450.95703125 C-229.69569015 463.08747196 -218.43167887 469.42115558 -208.58837891 475.9140625 C-205.07010026 478.26329538 -201.62699947 480.71630397 -198.1796875 483.16796875 C-196.75420603 484.17750676 -195.32841895 485.18661337 -193.90234375 486.1953125 C-192.81203857 486.96657471 -192.81203857 486.96657471 -191.69970703 487.75341797 C-187.68002985 490.59027769 -183.64863584 493.41037334 -179.6171875 496.23046875 C-178.7830835 496.81401123 -177.94897949 497.39755371 -177.08959961 497.9987793 C-174.53648395 499.784612 -171.98312995 501.57010335 -169.4296875 503.35546875 C-159.97969755 509.96289596 -150.53015846 516.57036906 -141.1171875 523.23046875 C-133.49179208 528.62399682 -125.82607878 533.95870159 -118.15576172 539.28808594 C-109.3831756 545.38406855 -100.62971094 551.50702139 -91.88134766 557.63769531 C-87.73182322 560.54508965 -83.58066444 563.45014876 -79.4296875 566.35546875 C-77.76301319 567.5221245 -76.09634652 568.68879116 -74.4296875 569.85546875 C-73.6046875 570.43296875 -72.7796875 571.01046875 -71.9296875 571.60546875 C35.5703125 646.85546875 35.5703125 646.85546875 38.07299805 648.60766602 C39.73031497 649.76757723 41.38802636 650.92692503 43.04614258 652.08569336 C47.35936029 655.10108368 51.66412774 658.12761922 55.95703125 661.171875 C56.84455078 661.79900391 57.73207031 662.42613281 58.64648438 663.07226562 C60.3287657 664.26131264 62.00864928 665.45376298 63.68554688 666.65039062 C77.39797364 676.36031599 77.39797364 676.36031599 93.5703125 678.35546875 C103.63159408 676.47588867 111.52597527 671.60655723 117.42358398 663.24267578 C117.92575439 662.49614746 118.4279248 661.74961914 118.9453125 660.98046875 C119.49711182 660.18882324 120.04891113 659.39717773 120.61743164 658.58154297 C122.28408718 656.18322588 123.92860186 653.77090547 125.5703125 651.35546875 C126.49743188 650.01084494 127.42574418 648.66704256 128.35546875 647.32421875 C130.14594162 644.73320265 131.9273331 642.13625341 133.703125 639.53515625 C136.89568154 634.86808094 140.13716352 630.23571919 143.3828125 625.60546875 C143.9718335 624.76516113 144.56085449 623.92485352 145.16772461 623.05908203 C146.36896953 621.34590866 147.57038646 619.63285589 148.77197266 617.91992188 C151.70756234 613.7337375 154.63874859 609.54447283 157.5703125 605.35546875 C158.73695731 603.68878678 159.903624 602.02212013 161.0703125 600.35546875 C161.6478125 599.53046875 162.2253125 598.70546875 162.8203125 597.85546875 C169.23697917 588.68880208 175.65364583 579.52213542 182.0703125 570.35546875 C182.93765015 569.11639771 182.93765015 569.11639771 183.82250977 567.85229492 C184.98180846 566.19617706 186.14115047 564.5400895 187.30053711 562.8840332 C190.330301 558.5562255 193.35916933 554.2277947 196.38671875 549.8984375 C197.01384766 549.00189453 197.64097656 548.10535156 198.28710938 547.18164062 C199.48009859 545.4761079 200.67282518 543.77039142 201.86523438 542.06445312 C205.0750129 537.47633554 208.30766905 532.90615765 211.5703125 528.35546875 C200.0227913 530.07212004 188.51617605 532.02131283 177.0078125 533.98046875 C175.98908051 534.15365631 174.97034851 534.32684387 173.92074585 534.50527954 C158.7243373 537.09229474 143.54696545 539.77338355 128.3828125 542.54296875 C127.01203049 542.79291595 127.01203049 542.79291595 125.61355591 543.0479126 C117.40350111 544.54537448 109.19447934 546.04775841 100.99205017 547.58650208 C97.81084228 548.18175928 94.62785039 548.76737003 91.4453125 549.35546875 C90.3622583 549.56324951 89.2792041 549.77103027 88.16333008 549.98510742 C76.66969202 552.09542988 68.00838293 552.15127066 57.5703125 546.35546875 C48.35124407 539.94946954 44.10549461 532.80144668 41.8828125 521.91796875 C41.44189611 519.39773073 41.0041142 516.87694114 40.5703125 514.35546875 C40.17877579 512.66696667 39.78352866 510.97931594 39.3828125 509.29296875 C37.36801274 499.0482242 37.3171095 488.32814398 42.859375 479.2421875 C50.4864851 468.41332262 59.60736067 464.05452729 72.50390625 461.75 C74.83354298 461.34793732 77.16475837 460.95856428 79.49795532 460.57769775 C82.09309306 460.15404687 84.68570079 459.71707965 87.27807617 459.27685547 C90.08365633 458.80074453 92.88937989 458.32565627 95.69581604 457.85461426 C105.86905932 456.14700849 116.02592373 454.34917884 126.18289185 452.54769897 C131.59929322 451.58756686 137.01650639 450.63203395 142.43359375 449.67578125 C144.62842207 449.28810918 146.82324629 448.90041387 149.01806641 448.51269531 C158.6447791 446.81231758 168.27181773 445.11378726 177.89883423 443.41513062 C181.06693742 442.85606434 184.2350111 442.29683107 187.40307617 441.73754883 C197.13311555 440.0199433 206.86332138 438.30330495 216.59431458 436.59111023 C219.93526616 436.00314294 223.27610904 435.41456093 226.61694336 434.82592773 C230.95844958 434.0611105 235.30045377 433.29921182 239.64282227 432.53930664 C248.9101316 430.91372965 258.16877959 429.26545967 267.40234375 427.45703125 C305.94296411 419.94362378 305.94296411 419.94362378 321.5703125 426.35546875 C322.55128906 426.74605469 323.53226563 427.13664062 324.54296875 427.5390625 C338.94635423 433.96686917 345.67555892 444.50270222 351.44140625 458.46484375 C354.85537688 469.10701425 353.34368932 482.48233038 348.5703125 492.35546875 C346.1660074 496.54971106 343.41353766 500.45238788 340.5703125 504.35546875 C339.57364264 505.74177349 338.57758686 507.12851986 337.58203125 508.515625 C335.37265383 511.58664954 333.15369446 514.65049457 330.9296875 517.7109375 C327.77099828 522.06546802 324.6630332 526.45393409 321.5703125 530.85546875 C316.9091954 537.48486946 312.18086542 544.06275795 307.42578125 550.625 C303.77035662 555.67629083 300.15673288 560.75499227 296.5703125 565.85546875 C291.90894501 572.48469587 287.18086819 579.06275412 282.42578125 585.625 C278.26636157 591.37274223 274.16688009 597.16050133 270.08764648 602.96533203 C266.4819236 608.08766817 262.81627538 613.1638482 259.1328125 618.23046875 C254.64483181 624.40705636 250.28889403 630.65891954 246.0078125 636.98046875 C241.54584326 643.56632735 236.9125074 649.97231652 232.08959961 656.29736328 C228.24532137 661.372189 224.6345701 666.58104479 221.0703125 671.85546875 C216.58959191 678.48608378 211.94183775 684.93423379 207.08984375 691.296875 C203.2456643 696.37199905 199.63467285 701.58089274 196.0703125 706.85546875 C191.58959191 713.48608378 186.94183775 719.93423379 182.08984375 726.296875 C178.2456643 731.37199905 174.63467285 736.58089274 171.0703125 741.85546875 C166.5928001 748.48133627 161.95587267 754.93130373 157.09643555 761.28149414 C153.75548012 765.68055627 150.62860612 770.18734948 147.5612793 774.78100586 C132.84577637 796.80395998 132.84577637 796.80395998 120.2578125 799.9296875 C104.25399559 802.46517594 95.24903491 797.21585076 82.5703125 788.35546875 C81.85439941 787.85724609 81.13848633 787.35902344 80.40087891 786.84570312 C75.32434419 783.31107191 70.26002679 779.75924805 65.19921875 776.20214844 C60.99341745 773.24777613 56.78166281 770.30192293 52.5703125 767.35546875 C50.90361522 766.18884581 49.2369486 765.02217908 47.5703125 763.85546875 C46.7453125 763.27796875 45.9203125 762.70046875 45.0703125 762.10546875 C2.5703125 732.35546875 -39.9296875 702.60546875 -82.4296875 672.85546875 C-83.66755005 671.98897705 -83.66755005 671.98897705 -84.93041992 671.10498047 C-86.59467578 669.93998511 -88.25890111 668.77494615 -89.9230957 667.60986328 C-94.12639673 664.66726464 -98.33024931 661.72545971 -102.53515625 658.78515625 C-110.28254269 653.36666582 -118.02444608 647.94111741 -125.7421875 642.48046875 C-133.36758292 637.08694068 -141.03329622 631.75223591 -148.70361328 626.42285156 C-157.4761994 620.32686895 -166.22966406 614.20391611 -174.97802734 608.07324219 C-179.12755178 605.16584785 -183.27871056 602.26078874 -187.4296875 599.35546875 C-189.09636181 598.188813 -190.76302848 597.02214634 -192.4296875 595.85546875 C-193.6671875 594.98921875 -193.6671875 594.98921875 -194.9296875 594.10546875 C-230.76302083 569.02213542 -266.59635417 543.93880208 -302.4296875 518.85546875 C-303.25557373 518.27740479 -304.08145996 517.69934082 -304.93237305 517.10375977 C-306.59030226 515.94309586 -308.24801896 514.78212835 -309.90551758 513.62084961 C-314.20412822 510.60974963 -318.50688259 507.60483955 -322.81640625 504.609375 C-324.14768555 503.6822168 -324.14768555 503.6822168 -325.50585938 502.73632812 C-327.1841606 501.56766811 -328.86374335 500.40084519 -330.54492188 499.23632812 C-353.29852373 483.37544918 -353.29852373 483.37544918 -356.4296875 470.35546875 C-357.71900357 457.60717507 -354.96870783 448.78559792 -347.6171875 438.54296875 C-346.76048462 437.32081665 -346.76048462 437.32081665 -345.88647461 436.07397461 C-344.68189124 434.35757045 -343.47258184 432.64447424 -342.25878906 430.93457031 C-340.47836175 428.42410126 -338.71306112 425.90377216 -336.953125 423.37890625 C-334.04218934 419.20402793 -331.12078005 415.03662979 -328.19580078 410.87158203 C-325.26946886 406.70255013 -322.34990651 402.52878355 -319.4296875 398.35546875 C-318.26305361 396.68877914 -317.09638693 395.02211248 -315.9296875 393.35546875 C-315.0634375 392.11796875 -315.0634375 392.11796875 -314.1796875 390.85546875 C-289.09635417 355.02213542 -264.01302083 319.18880208 -238.9296875 283.35546875 C-238.0631958 282.1176062 -238.0631958 282.1176062 -237.17919922 280.85473633 C-236.01420386 279.19048047 -234.8491649 277.52625514 -233.68408203 275.86206055 C-230.74148339 271.65875952 -227.79967846 267.45490694 -224.859375 263.25 C-218.91274621 254.7473641 -212.95289848 246.25456169 -206.96386719 237.78173828 C-201.35383341 229.84067067 -195.78358515 221.87181556 -190.21191406 213.90380859 C-187.28592017 209.72003815 -184.3577044 205.53782351 -181.4296875 201.35546875 C-180.26300991 199.68880973 -179.09634325 198.02214306 -177.9296875 196.35546875 C-125.4296875 121.35546875 -125.4296875 121.35546875 -72.9296875 46.35546875 C-72.35178467 45.52966309 -71.77388184 44.70385742 -71.1784668 43.85302734 C-70.01674355 42.19388609 -68.85415181 40.53535261 -67.69067383 38.87744141 C-64.69080097 34.60032 -61.70877064 30.31226899 -58.75390625 26.00390625 C-44.9687473 5.95376986 -26.07101491 -16.9199887 0 0 Z " fill="#000000" transform="translate(375.4296875,348.64453125)"/>
<path d="M0 0 C6.30376239 3.58168317 12.09256444 7.87193786 17.93115234 12.15673828 C21.93906248 15.07318241 26.01129566 17.89708054 30.078125 20.73046875 C31.77233611 21.91507761 33.46634529 23.09997531 35.16015625 24.28515625 C36.00400879 24.87522461 36.84786133 25.46529297 37.71728516 26.07324219 C41.9010556 28.99923608 46.08327024 31.92745185 50.265625 34.85546875 C51.93228402 36.02214634 53.59895069 37.188813 55.265625 38.35546875 C179.015625 124.98046875 179.015625 124.98046875 385.265625 269.35546875 C386.0908667 269.93312988 386.9161084 270.51079102 387.76635742 271.10595703 C389.43061328 272.27095239 391.09483861 273.43599135 392.7590332 274.60107422 C397.81175835 278.13832793 402.8656128 281.6739601 407.92041016 285.20825195 C410.42357819 286.95979396 412.92474304 288.71416866 415.42578125 290.46875 C418.59101662 292.68815497 421.76577145 294.89274693 424.94921875 297.0859375 C450.49137027 314.75300722 450.49137027 314.75300722 453.265625 328.85546875 C454.4117955 341.11601985 450.54255071 349.71951434 443.515625 359.54296875 C442.95415771 360.34549072 442.39269043 361.1480127 441.81420898 361.97485352 C440.60455251 363.70281614 439.39080438 365.42792039 438.17333984 367.15039062 C436.21792596 369.92310445 434.28042565 372.70755427 432.34765625 375.49609375 C424.26415534 387.15844378 416.12683736 398.78326526 407.98339844 410.40380859 C405.0760041 414.55333303 402.17094499 418.70449181 399.265625 422.85546875 C398.09896925 424.52214306 396.93230259 426.18880973 395.765625 427.85546875 C395.188125 428.68046875 394.610625 429.50546875 394.015625 430.35546875 C373.59895833 459.52213542 353.18229167 488.68880208 332.765625 517.85546875 C331.8991333 519.0933313 331.8991333 519.0933313 331.01513672 520.35620117 C329.85014136 522.02045703 328.6851024 523.68468236 327.52001953 525.34887695 C324.57742089 529.55217798 321.63561596 533.75603056 318.6953125 537.9609375 C312.74868371 546.4635734 306.78883598 554.95637581 300.79980469 563.42919922 C295.18977091 571.37026683 289.61952265 579.33912194 284.04785156 587.30712891 C281.12185767 591.49089935 278.1936419 595.67311399 275.265625 599.85546875 C274.09894741 601.52212777 272.93228075 603.18879444 271.765625 604.85546875 C236.765625 654.85546875 201.765625 704.85546875 166.765625 754.85546875 C166.18756104 755.68151611 165.60949707 756.50756348 165.01391602 757.35864258 C163.85386435 759.01537326 162.69290265 760.67146712 161.53100586 762.3269043 C158.5051306 766.64065736 155.49862559 770.96628173 152.51953125 775.3125 C151.90142578 776.20904297 151.28332031 777.10558594 150.64648438 778.02929688 C149.47385481 779.73093226 148.30675548 781.43639839 147.14648438 783.14648438 C140.4687572 792.80634182 133.24391167 800.53709069 121.265625 802.85546875 C105.63073202 804.20789724 96.56667744 798.04979923 84.36230469 789.34326172 C81.02390956 786.97435395 77.64375636 784.66717122 74.265625 782.35546875 C72.92816213 781.43652281 71.5909227 780.51725158 70.25390625 779.59765625 C69.59342285 779.14358398 68.93293945 778.68951172 68.25244141 778.22167969 C66.29173375 776.87342212 64.33136717 775.52467007 62.37109375 774.17578125 C52.01507166 767.05075517 41.64214697 759.9505976 31.265625 752.85546875 C20.24015365 745.31660938 9.22043542 737.76964842 -1.78271484 730.19824219 C-5.09929264 727.91638356 -8.4168921 725.6360112 -11.734375 723.35546875 C-13.06771308 722.43880899 -14.40104642 721.52214233 -15.734375 720.60546875 C-16.394375 720.15171875 -17.054375 719.69796875 -17.734375 719.23046875 C-67.734375 684.85546875 -117.734375 650.48046875 -167.734375 616.10546875 C-168.39501953 615.65139648 -169.05566406 615.19732422 -169.73632812 614.72949219 C-171.0636076 613.81674428 -172.39043413 612.90333736 -173.71679688 611.98925781 C-177.13925217 609.63190291 -180.5698869 607.28805918 -184.015625 604.96484375 C-197.67491906 595.73427753 -209.09431349 587.07824998 -214.0703125 570.484375 C-216.68337859 556.20473739 -215.93095275 542.12037127 -207.71484375 529.8359375 C-203.13896649 523.84963222 -198.32152026 519.47784135 -191.734375 515.85546875 C-190.94160156 515.40558594 -190.14882813 514.95570313 -189.33203125 514.4921875 C-180.14879241 509.57414964 -170.14482275 507.58568876 -159.984375 505.66796875 C-158.9013208 505.46147705 -157.8182666 505.25498535 -156.70239258 505.04223633 C-143.26169873 502.52159639 -129.77092833 500.2839895 -116.28735352 498.00683594 C-102.65472653 495.7030288 -89.03313542 493.34485293 -75.421875 490.91796875 C-74.51770844 490.75684601 -73.61354187 490.59572327 -72.68197632 490.42971802 C-61.53659181 488.44203057 -50.39482603 486.4344171 -39.25390625 484.421875 C-37.55859016 484.11586113 -37.55859016 484.11586113 -35.82902527 483.80366516 C-30.34090037 482.81299666 -24.85308869 481.8206725 -19.3659668 480.82446289 C-10.60471195 479.23799658 -1.85250155 477.68682852 6.95605469 476.38330078 C11.19142638 475.70781586 15.40185492 474.91858095 19.6171875 474.12890625 C22.17546001 473.65636284 24.7339498 473.18501066 27.29248047 472.71386719 C29.01484642 472.39341196 30.73622923 472.06762356 32.45654297 471.73632812 C41.87826723 469.92868219 51.06696842 468.55251351 60.6796875 468.51171875 C61.45897614 468.50667328 62.23826477 468.50162781 63.04116821 468.49642944 C69.36373052 468.58990994 74.12916737 470.06069791 79.265625 473.85546875 C79.91660156 474.31308594 80.56757812 474.77070312 81.23828125 475.2421875 C89.22945711 481.43492463 92.06784218 489.27709739 94.015625 498.91796875 C94.22316406 499.87251953 94.43070313 500.82707031 94.64453125 501.81054688 C97.66748496 515.94041759 99.6219829 528.45262306 91.79296875 541.265625 C85.84763027 549.68467405 77.4848637 554.38157996 67.44946289 556.43041992 C66.47227295 556.58486572 65.49508301 556.73931152 64.48828125 556.8984375 C63.35745117 557.08108154 62.22662109 557.26372559 61.06152344 557.4519043 C59.82950195 557.64695557 58.59748047 557.84200684 57.328125 558.04296875 C54.58397634 558.48688513 51.84071287 558.93610764 49.09765625 559.38671875 C48.37750336 559.50484421 47.65735046 559.62296967 46.91537476 559.74467468 C39.54724457 560.96068937 32.19965858 562.28453046 24.85217285 563.61877441 C7.93117929 566.69073788 -9.00578483 569.66983715 -25.9510498 572.60464478 C-28.59186429 573.06206589 -31.23239156 573.52109306 -33.87268066 573.98153687 C-37.59032613 574.62908791 -41.30871346 575.27219427 -45.02734375 575.9140625 C-46.15160263 576.11058411 -47.27586151 576.30710571 -48.43418884 576.50958252 C-49.9888662 576.77638824 -49.9888662 576.77638824 -51.57495117 577.04858398 C-52.47880051 577.20511948 -53.38264984 577.36165497 -54.31388855 577.52293396 C-56.734375 577.85546875 -56.734375 577.85546875 -60.734375 577.85546875 C-58.0175579 580.70376984 -55.25752505 583.02622117 -52.015625 585.25390625 C-51.09394531 585.89070312 -50.17226563 586.5275 -49.22265625 587.18359375 C-48.23652344 587.8590625 -47.25039063 588.53453125 -46.234375 589.23046875 C-44.14041877 590.67548246 -42.04667233 592.1208002 -39.953125 593.56640625 C-38.90382813 594.28924805 -37.85453125 595.01208984 -36.7734375 595.75683594 C-32.4121644 598.76852485 -28.0724449 601.81049854 -23.734375 604.85546875 C-16.51735725 609.91470184 -9.28515875 614.95171622 -2.046875 619.98046875 C5.31747933 625.09803992 12.66482628 630.23805862 19.98510742 635.41845703 C26.24617371 639.84798367 32.53025507 644.24424959 38.81616211 648.63842773 C43.52141128 651.92932981 48.21856661 655.23112759 52.90478516 658.54907227 C55.66435904 660.50209477 58.42766759 662.44977178 61.19238281 664.39550781 C62.60943572 665.39338539 64.02540291 666.39280607 65.44042969 667.39355469 C67.58593548 668.90831045 69.73746355 670.41412162 71.890625 671.91796875 C72.52967773 672.37131592 73.16873047 672.82466309 73.82714844 673.29174805 C82.77303989 679.50364869 90.4240015 680.88638593 101.265625 679.85546875 C110.81289931 677.44703603 116.30094902 672.29431072 121.703125 664.35546875 C122.2182666 663.61208252 122.7334082 662.86869629 123.26416016 662.1027832 C124.36784637 660.51005723 125.46867794 658.91534996 126.56689453 657.31884766 C128.82527025 654.04391075 131.1097981 650.78765761 133.39477539 647.53125 C135.16408691 645.00952955 136.93015154 642.48556471 138.6953125 639.9609375 C142.2170197 634.92456923 145.74110251 629.88986709 149.265625 624.85546875 C150.43230259 623.18880973 151.59896925 621.52214306 152.765625 619.85546875 C173.765625 589.85546875 194.765625 559.85546875 215.765625 529.85546875 C216.6321167 528.6176062 216.6321167 528.6176062 217.51611328 527.35473633 C218.68110864 525.69048047 219.8461476 524.02625514 221.01123047 522.36206055 C223.95382911 518.15875952 226.89563404 513.95490694 229.8359375 509.75 C235.29738962 501.94108161 240.76529778 494.13706722 246.265625 486.35546875 C256.34445454 472.09414253 266.33149891 457.76899011 276.29931641 443.42993164 C282.36326789 434.70906398 288.45203979 426.0057445 294.54785156 417.30712891 C296.28515131 414.82760018 298.0216388 412.3475048 299.7578125 409.8671875 C300.33716553 409.03968994 300.91651855 408.21219238 301.51342773 407.35961914 C302.67522995 405.69923105 303.83620941 404.03826695 304.99633789 402.37670898 C308.00451483 398.0709037 311.02941465 393.77834526 314.08203125 389.50390625 C314.70916016 388.62089844 315.33628906 387.73789062 315.98242188 386.828125 C317.16949003 385.15743648 318.36178559 383.49044336 319.56054688 381.828125 C327.11429728 371.16506097 331.34581402 362.1109311 330.265625 348.85546875 C327.64197182 338.43988173 319.31545839 331.41332802 310.828125 325.54296875 C310.04099121 324.98665771 309.25385742 324.43034668 308.44287109 323.85717773 C306.0587488 322.17766198 303.66448339 320.51385163 301.265625 318.85546875 C300.58258301 318.38206055 299.89954102 317.90865234 299.19580078 317.42089844 C295.9531073 315.17713897 292.70169608 312.94648906 289.4453125 310.72265625 C284.77823719 307.53009971 280.14587544 304.28861773 275.515625 301.04296875 C274.67531738 300.45394775 273.83500977 299.86492676 272.96923828 299.25805664 C271.25606491 298.05681172 269.54301214 296.85539479 267.83007812 295.65380859 C263.64389375 292.71821891 259.45462908 289.78703266 255.265625 286.85546875 C253.59894303 285.68882394 251.93227638 284.52215725 250.265625 283.35546875 C249.440625 282.77796875 248.615625 282.20046875 247.765625 281.60546875 C218.59895833 261.18880208 189.43229167 240.77213542 160.265625 220.35546875 C159.02776245 219.48897705 159.02776245 219.48897705 157.76489258 218.60498047 C156.10063672 217.43998511 154.43641139 216.27494615 152.7722168 215.10986328 C148.56891577 212.16726464 144.36506319 209.22545971 140.16015625 206.28515625 C131.65752035 200.33852746 123.16471794 194.37867973 114.69189453 188.38964844 C106.75082692 182.77961466 98.78197181 177.2093664 90.81396484 171.63769531 C86.6301944 168.71170142 82.44797976 165.78348565 78.265625 162.85546875 C76.59896598 161.68879116 74.93229931 160.5221245 73.265625 159.35546875 C63.265625 152.35546875 63.265625 152.35546875 60.76318359 150.60351562 C59.10496103 149.44292193 57.4464348 148.28276198 55.78759766 147.12304688 C51.48907871 144.11704228 47.19690629 141.10252354 42.9140625 138.07421875 C42.03105469 137.45160156 41.14804688 136.82898438 40.23828125 136.1875 C38.56961097 135.01064833 36.90278142 133.83117989 35.23828125 132.6484375 C23.55085977 124.41813565 14.06050684 118.26552104 -0.734375 119.85546875 C-13.3085863 123.08926711 -18.98608269 131.38151444 -25.859375 141.73046875 C-30.25208448 148.25047728 -34.72901877 154.68944815 -39.359375 161.04296875 C-43.83461553 167.19367863 -48.21232951 173.39783749 -52.50268555 179.67871094 C-60.93606415 192.01994448 -69.57192303 204.22228808 -78.19946289 216.42822266 C-83.80983873 224.36954633 -89.38024453 232.33878899 -94.95214844 240.30712891 C-98.45944056 245.32207619 -101.96974213 250.33491733 -105.47949219 255.34814453 C-108.4222314 259.55170522 -111.36421594 263.75579016 -114.3046875 267.9609375 C-120.25131629 276.4635734 -126.21116402 284.95637581 -132.20019531 293.42919922 C-137.81022909 301.37026683 -143.38047735 309.33912194 -148.95214844 317.30712891 C-152.45944056 322.32207619 -155.96974213 327.33491733 -159.47949219 332.34814453 C-162.4222314 336.55170522 -165.36421594 340.75579016 -168.3046875 344.9609375 C-174.25131629 353.4635734 -180.21116402 361.95637581 -186.20019531 370.42919922 C-190.01728628 375.83233558 -193.81630519 381.24794762 -197.609375 386.66796875 C-198.18953369 387.49586914 -198.76969238 388.32376953 -199.36743164 389.17675781 C-202.4217236 393.53798496 -205.46371106 397.9071625 -208.48828125 402.2890625 C-209.10525879 403.17940186 -209.72223633 404.06974121 -210.35791016 404.98706055 C-211.52696197 406.67455459 -212.69229453 408.36463434 -213.85302734 410.05786133 C-220.83624724 420.11784643 -227.54052512 428.46419248 -239.734375 431.85546875 C-258.05171251 433.8863889 -269.6082577 425.29829634 -283.671875 414.53686523 C-288.32734151 410.74162401 -292.87689449 406.87205886 -295.109375 401.16796875 C-295.40585937 400.44222656 -295.70234375 399.71648437 -296.0078125 398.96875 C-297.44869757 394.77778859 -297.9205163 391.1221128 -297.984375 386.66796875 C-298.02304687 385.06888672 -298.02304687 385.06888672 -298.0625 383.4375 C-297.35526831 375.71688734 -294.43588649 369.72901777 -289.921875 363.54296875 C-289.20825806 362.53544556 -289.20825806 362.53544556 -288.48022461 361.50756836 C-287.44971897 360.05313624 -286.4148183 358.60181005 -285.37597656 357.15332031 C-283.08061116 353.94035493 -280.82653685 350.69914076 -278.5690918 347.45947266 C-271.18523015 336.87041084 -263.728147 326.33260412 -256.27539062 315.79199219 C-244.67871611 299.38788451 -233.16735711 282.92514758 -221.70068359 266.42993164 C-215.63673211 257.70906398 -209.54796021 249.0057445 -203.45214844 240.30712891 C-200.5447541 236.15760447 -197.63969499 232.00644569 -194.734375 227.85546875 C-193.56771925 226.18879444 -192.40105259 224.52212777 -191.234375 222.85546875 C-190.656875 222.03046875 -190.079375 221.20546875 -189.484375 220.35546875 C-150.40104167 164.52213542 -111.31770833 108.68880208 -72.234375 52.85546875 C-71.3676416 51.6171228 -71.3676416 51.6171228 -70.48339844 50.35375977 C-69.32038043 48.69251419 -68.15697094 47.03154262 -66.99316406 45.37084961 C-64.01735073 41.12343874 -61.04915998 36.87101297 -58.09375 32.609375 C-55.18642931 28.42061005 -52.26008251 24.2459826 -49.3125 20.08544922 C-48.30787619 18.66585858 -47.30740551 17.24331298 -46.3125 15.81689453 C-35.19230455 -0.04982552 -19.02441782 -8.88968215 0 0 Z " fill="#000000" transform="translate(1010.734375,164.14453125)"/>
<path d="M0 0 C1.10214844 -0.00322266 2.20429688 -0.00644531 3.33984375 -0.00976562 C11.08105805 0.04134683 17.73454748 0.1339209 23.75 5.5625 C24.39453125 6.12453125 25.0390625 6.6865625 25.703125 7.265625 C29.5109083 11.60318685 30.87735305 15.69699306 30.84057617 21.40966797 C30.84034958 22.59043915 30.84012299 23.77121033 30.83988953 24.98776245 C30.82440567 26.24734772 30.80892181 27.50693298 30.79296875 28.8046875 C30.78872391 30.10576447 30.78447906 31.40684143 30.78010559 32.74734497 C30.76870479 36.18995763 30.73927974 39.63218467 30.70599365 43.074646 C30.67518917 46.59398178 30.6615782 50.11338047 30.64648438 53.6328125 C30.61440462 60.52619909 30.56326684 67.41933098 30.5 74.3125 C31.19855606 74.30583817 31.89711212 74.29917633 32.61683655 74.29231262 C39.22216106 74.23203031 45.82740803 74.18643904 52.43294621 74.15706348 C55.82838302 74.1414531 59.22359121 74.12030068 62.61889648 74.08618164 C66.52845459 74.04714386 70.43792232 74.03275247 74.34765625 74.01953125 C76.16367088 73.99630547 76.16367088 73.99630547 78.01637268 73.97261047 C86.13606451 73.97099748 90.93499142 74.86592548 97.6875 79.5 C104.20679986 86.01929986 105.02640362 91.99857699 105.09570312 100.93359375 C105.07926758 102.85365234 105.07926758 102.85365234 105.0625 104.8125 C105.08634766 106.09253906 105.11019531 107.37257813 105.13476562 108.69140625 C105.12071294 117.75070558 103.66355331 122.75076904 97.62109375 129.37109375 C97.06550781 129.82613281 96.50992188 130.28117188 95.9375 130.75 C95.37933594 131.22308594 94.82117188 131.69617188 94.24609375 132.18359375 C90.63366283 134.51914752 86.92750105 134.43516848 82.72167969 134.42602539 C81.5607782 134.42594986 80.39987671 134.42587433 79.20379639 134.42579651 C77.3317453 134.41805458 77.3317453 134.41805458 75.421875 134.41015625 C73.49930878 134.40803383 73.49930878 134.40803383 71.53790283 134.40586853 C68.1381636 134.40205901 64.7384674 134.39224214 61.33874512 134.38116455 C57.866461 134.37091674 54.3941699 134.3663637 50.921875 134.36132812 C44.11456571 134.35061841 37.30728492 134.33356084 30.5 134.3125 C30.50888245 135.02136353 30.51776489 135.73022705 30.5269165 136.46057129 C30.60734581 143.16856315 30.66810735 149.87641879 30.70724869 156.58478546 C30.72804893 160.03297132 30.75622536 163.48075594 30.80175781 166.92871094 C30.85387244 170.90034035 30.87300789 174.87181207 30.890625 178.84375 C30.91127014 180.07113892 30.93191528 181.29852783 30.95318604 182.56311035 C30.9552679 190.56050633 30.13103262 196.10472618 24.75390625 202.3359375 C24.19574219 202.78195312 23.63757813 203.22796875 23.0625 203.6875 C22.22912109 204.37972656 22.22912109 204.37972656 21.37890625 205.0859375 C14.91244626 209.3072856 8.14496022 208.67985524 0.6875 208.6875 C-0.55837891 208.71199219 -1.80425781 208.73648438 -3.08789062 208.76171875 C-11.40706591 208.78819888 -17.05322436 208.1497755 -23.5234375 202.56640625 C-23.96945312 202.00824219 -24.41546875 201.45007813 -24.875 200.875 C-25.33648437 200.31941406 -25.79796875 199.76382813 -26.2734375 199.19140625 C-29.00396322 195.00865825 -29.74864718 191.37702749 -29.72705078 186.4206543 C-29.72689972 185.25982834 -29.72674866 184.09900238 -29.72659302 182.90299988 C-29.71627045 181.66012711 -29.70594788 180.41725433 -29.6953125 179.13671875 C-29.6924826 177.85642288 -29.68965271 176.57612701 -29.68673706 175.2570343 C-29.6791278 171.86546925 -29.65950293 168.4740775 -29.6373291 165.08258057 C-29.61681206 161.61692651 -29.60772286 158.15124425 -29.59765625 154.68554688 C-29.57561492 147.89445634 -29.54215129 141.10349388 -29.5 134.3125 C-30.56662621 134.32249275 -30.56662621 134.32249275 -31.65480042 134.33268738 C-38.37785492 134.39296413 -45.10083327 134.43855818 -51.82409763 134.46793652 C-55.28006646 134.48354837 -58.73581075 134.50470356 -62.19165039 134.53881836 C-66.17070772 134.57784939 -70.14967622 134.59224632 -74.12890625 134.60546875 C-75.97773155 134.62869453 -75.97773155 134.62869453 -77.86390686 134.65238953 C-85.24920838 134.65383132 -90.83328001 134.44490742 -96.64453125 129.48046875 C-97.19496094 128.82691406 -97.74539063 128.17335938 -98.3125 127.5 C-98.87582031 126.85417969 -99.43914062 126.20835937 -100.01953125 125.54296875 C-104.30281737 119.0897857 -103.89975496 112.0108538 -103.9375 104.5625 C-103.97037109 103.43328125 -104.00324219 102.3040625 -104.03710938 101.140625 C-104.08555147 93.53081241 -102.99343739 87.59086966 -98.5 81.3125 C-93.26091033 76.41629063 -89.08485125 74.1832487 -81.83520508 74.19897461 C-80.67422806 74.19905014 -79.51325104 74.19912567 -78.3170929 74.19920349 C-76.43729988 74.20694542 -76.43729988 74.20694542 -74.51953125 74.21484375 C-73.23640549 74.2162587 -71.95327972 74.21767365 -70.63127136 74.21913147 C-67.22329759 74.22294595 -63.81536657 74.23276709 -60.40740967 74.24383545 C-56.92851337 74.25407257 -53.44961015 74.25863402 -49.97070312 74.26367188 C-43.14711788 74.27439033 -36.32356099 74.29145391 -29.5 74.3125 C-29.50888245 73.60363647 -29.51776489 72.89477295 -29.5269165 72.16442871 C-29.60734581 65.45643685 -29.66810735 58.74858121 -29.70724869 52.04021454 C-29.72804893 48.59202868 -29.75622536 45.14424406 -29.80175781 41.69628906 C-29.85387244 37.72465965 -29.87300789 33.75318793 -29.890625 29.78125 C-29.91127014 28.55386108 -29.93191528 27.32647217 -29.95318604 26.06188965 C-29.95503054 18.9762674 -29.37023586 14.31022366 -25.5 8.3125 C-17.6729976 0.4854976 -10.57550375 -0.15461263 0 0 Z " fill="#000000" transform="translate(442.5,554.6875)"/>
<path d="M0 0 C6.90860837 5.71484149 11.05776097 14.01595564 12.4453125 22.828125 C12.85095786 32.29318332 9.92402056 40.14829402 3.875 47.375 C-2.50679716 54.00995936 -10.30768601 58.0228106 -19.5625 58.3125 C-28.76198199 58.19056283 -37.46489024 54.47790968 -44 48 C-50.60685804 39.80396452 -52.60881162 32.39729653 -52.43359375 21.89453125 C-51.37166184 12.35627794 -46.50749323 5.48718412 -39.171875 -0.4453125 C-27.22775827 -8.99523778 -11.8711683 -8.23208992 0 0 Z " fill="#029740" transform="translate(1123,493)"/>
<path d="M0 0 C8.05824776 5.48155315 13.6630531 13.03045286 15.58984375 22.76171875 C16.62545143 31.33519213 13.85216931 38.62712377 9.77734375 46.07421875 C4.30227858 52.80072739 -2.75656997 58.06931996 -11.41015625 59.76171875 C-22.31966319 60.72478666 -30.00072338 58.27539337 -38.5546875 51.53125 C-45.4616168 44.94422058 -48.66880578 37.10972467 -48.91015625 27.63671875 C-48.76066438 18.67600038 -46.23627049 12.12520858 -40.32421875 5.3828125 C-28.79951645 -5.59598285 -14.17097247 -8.16019757 0 0 Z " fill="#029EE3" transform="translate(1035.41015625,519.23828125)"/>
<path d="M0 0 C5.75469886 4.42282532 9.75839186 10.90798808 12.0390625 17.75 C12.8341047 29.2324948 12.30096559 38.5541994 5.0390625 48 C-0.07279059 53.47857299 -8.53096174 58.13203634 -16.0546875 58.98828125 C-25.46313037 59.27847673 -33.83701092 56.47192197 -41.17578125 50.51953125 C-47.96460353 43.79012973 -51.2181447 36.15461731 -51.4609375 26.625 C-51.31137234 17.65988837 -48.81510003 10.99576194 -42.76953125 4.3359375 C-30.65558467 -6.93761685 -14.20014157 -9.05188307 0 0 Z " fill="#FFED01" transform="translate(1009.9609375,436.25)"/>
<path d="M0 0 C0.69738281 0.4125 1.39476562 0.825 2.11328125 1.25 C9.16925305 5.92740504 14.2689051 13.69074447 16 22 C17.02661183 31.03097594 14.49609826 38.43816525 10.1875 46.3125 C5.22837442 52.40514 -1.22534945 57.93802515 -9.171875 59.39941406 C-11.42185203 59.57056445 -13.61910287 59.60601747 -15.875 59.5625 C-16.66221436 59.55444336 -17.44942871 59.54638672 -18.26049805 59.53808594 C-24.77332038 59.31519582 -29.63098398 57.78146303 -35 54 C-35.9075 53.443125 -36.815 52.88625 -37.75 52.3125 C-44.79471106 45.07210252 -48.00513556 36.59978156 -48.375 26.625 C-48.27021392 20.53343604 -47.09610306 16.20801442 -44 11 C-43.67257812 10.38640625 -43.34515625 9.7728125 -43.0078125 9.140625 C-39.29800218 3.02079192 -32.44021303 -1.76103733 -25.578125 -3.67578125 C-16.38526155 -4.83185347 -8.02691396 -4.96830264 0 0 Z " fill="#E30110" transform="translate(1091,407)"/>
</svg>
