<svg width="43" height="32" viewBox="0 0 43 32" fill="none" xmlns="http://www.w3.org/2000/svg">
<path d="M6.7729 31.0301C6.17638 30.6335 5.35946 29.83 4.95747 29.2426C4.26703 28.234 4.22654 27.8713 4.22654 22.6838V17.1926H5.35194H6.47652V19.7083V22.224L7.67038 21.7327C9.28753 21.0674 11.0846 21.3509 12.809 22.5499L14.2099 23.5217H19.665H25.12V13.2709C25.12 4.21526 25.0616 2.99733 24.6112 2.82759C24.3315 2.72609 20.3108 2.63897 15.6755 2.63897C6.7658 2.63897 6.47652 2.68745 6.47652 4.11849C6.47652 4.83456 6.52661 4.83891 11.6999 4.92546C16.7183 5.00765 16.9274 5.03684 17.0193 5.67298C17.2113 6.99873 16.6352 7.08528 8.2047 6.99586L0.208719 6.91364L0.104357 5.88525L0 4.85679H2.10972H4.21902V3.64999C4.21902 2.7173 4.44027 2.23278 5.20459 1.51428L6.1889 0.584529L14.6044 0.47808C24.3127 0.357255 25.3818 0.429589 26.5305 1.58869C27.2644 2.31105 27.3625 2.66545 27.3625 4.58015V6.75204H29.1095C30.0704 6.75204 31.2638 6.90205 31.7614 7.08575C32.9707 7.53058 39.2051 13.6059 39.7716 14.892C40.0763 15.5766 40.2183 17.1577 40.2183 19.7179V23.5255H41.203C42.1201 23.5255 42.1806 23.5933 42.0871 24.5539C41.9828 25.5823 41.9828 25.5823 39.9774 25.6767L37.9683 25.7687V26.9726C37.9683 29.4946 35.4641 31.7511 32.6639 31.7511C29.8892 31.7511 27.752 29.8872 27.4439 27.1984L27.2769 25.7383H21.093H14.9083L14.7455 27.1603C14.5577 28.7844 13.3492 30.5549 11.9307 31.2763C10.5031 32.0035 8.05359 31.8875 6.76329 31.0298L6.7729 31.0301ZM11.6444 28.6096C13.6385 26.6466 12.1369 23.5217 9.20028 23.5217C7.8649 23.5217 6.47652 25.1008 6.47652 26.6191C6.47652 29.3431 9.65529 30.5679 11.6444 28.6096ZM34.8947 28.5612C36.0593 27.1991 36.0189 25.6601 34.7903 24.4475C34.0949 23.7629 33.546 23.5221 32.6769 23.5221C31.8069 23.5221 31.2584 23.7637 30.5626 24.4475C29.3311 25.6601 29.291 27.1991 30.454 28.5612C31.147 29.372 31.5189 29.5349 32.6752 29.5349C33.8319 29.5349 34.2043 29.3706 34.8972 28.5612H34.8947ZM28.6966 22.9974C29.3215 22.2538 31.5339 21.3211 32.6735 21.3211C33.8127 21.3211 36.0255 22.2538 36.6504 22.9974C36.8925 23.2826 37.2904 23.5221 37.5346 23.5221C37.8852 23.5221 37.9766 22.8335 37.9766 20.3503V17.1779L32.7537 17.2651L27.5299 17.3522L27.438 20.0158C27.317 23.5096 27.6342 24.2649 28.6987 22.9981L28.6966 22.9974ZM34.0878 11.9677L31.0017 8.96557H29.1854H27.37V11.972V14.978H32.272H37.1735L34.0878 11.9759V11.9677ZM0.0480066 14.187V13.0691L8.48563 13.1513L16.9233 13.2335V14.1826V15.1317L8.48563 15.2139L0.0480066 15.2961V14.187ZM2.19571 10.9745C2.07883 10.8587 1.97865 10.3551 1.97865 9.86197V8.96557H10.5165H19.0551L18.9507 9.99397L18.8464 11.0224L10.6279 11.1046C6.10833 11.1531 2.31134 11.1046 2.1907 10.9739L2.19571 10.9745Z" fill="#898989"/>
</svg>