<svg width="34" height="36" viewBox="0 0 34 36" fill="none" xmlns="http://www.w3.org/2000/svg">
<path d="M13.6682 34.903C12.9659 34.1437 12.7474 33.6018 12.7474 32.6167C12.7474 29.9112 14.1736 29.0438 18.3361 29.2168C21.0824 29.3294 21.1927 29.3651 22.0696 30.428C22.6407 31.1189 22.9739 31.8911 22.9739 32.5215V33.5209H25.9383C30.9439 33.5209 31.0333 33.3574 31.0252 24.076C31.0252 16.4778 30.655 13.7831 29.2722 11.0325C27.9666 8.43964 25.519 5.95979 22.8685 4.54388C20.9218 3.50404 20.1379 3.2794 17.9325 3.13099C13.3386 2.82391 10.1645 4.09609 6.99682 7.52414C4.42479 10.3074 3.19129 13.1378 2.7321 17.312L2.386 20.4591H1.32475H0.262695L0.475989 17.706C1.22373 8.01592 8.19248 0.698242 16.672 0.698242C21.3343 0.698242 24.8509 2.31631 28.2508 6.0253C32.4455 10.6012 33.1912 13.3379 33.1892 24.143C33.1892 32.2534 32.9558 33.3782 30.991 34.8939C29.9668 35.6835 29.807 35.6998 22.2692 35.7981L14.591 35.8955L13.6682 34.903ZM20.6936 33.0143C21.076 31.9391 20.2119 31.5113 17.6576 31.5113C15.1246 31.5113 14.6002 31.8132 15.0288 33.0189C15.2904 33.7538 20.4329 33.7497 20.6936 33.0189V33.0143ZM6.98957 26.8331C5.99794 26.3982 4.73789 24.5908 4.50849 23.2726C4.13019 21.0906 4.55679 16.8361 5.20432 15.8392C6.59437 13.7892 10.2598 13.0344 11.9304 14.4545L12.7474 15.1489V20.4832C12.7474 26.9826 12.6588 27.1703 9.57126 27.1366C8.50518 27.1366 7.34372 26.9883 6.98957 26.8348V26.8331ZM10.5778 20.4591V16.1048H9.37285C8.64845 16.1048 7.87616 16.3606 7.43628 16.7455C6.79318 17.3084 6.69176 17.7214 6.59799 20.1782C6.5014 22.636 6.5497 23.0817 7.16343 23.8918C7.71397 24.6491 8.07899 24.8129 9.20624 24.8129H10.5778V20.4591ZM21.4563 26.5226C20.8486 25.865 20.8043 25.4592 20.8043 20.4832V15.1489L21.6209 14.4545C22.66 13.5713 25.166 13.518 26.6704 14.347C28.4926 15.3516 28.9635 16.3934 29.112 19.7478C29.2649 23.2132 28.9229 24.6404 27.5996 26.0083C26.773 26.8649 26.3947 26.9933 24.3865 27.1033C22.3952 27.216 22.0265 27.1547 21.4563 26.5226ZM26.3883 23.8918C26.979 23.0817 27.0462 22.636 26.9537 20.1782C26.8571 17.7214 26.7605 17.3084 26.1154 16.7455C25.6751 16.3619 24.9036 16.1048 24.1784 16.1048H22.9739V20.4591V24.8129H24.3454C25.4735 24.8129 25.8377 24.6493 26.3883 23.8918Z" fill="#898989"/>
</svg>
