<svg width="35" height="36" viewBox="0 0 35 36" fill="none" xmlns="http://www.w3.org/2000/svg">
<path d="M14.1107 33.9154C11.2902 32.3443 6.88421 27.9968 5.10316 25.028C3.24112 21.9244 1.50843 16.4244 1.1348 12.4326C0.829977 9.1506 0.882222 8.82594 1.9343 7.71383C2.62625 6.98235 5.90182 5.39165 10.3884 3.60896L17.7133 0.698242L25.0378 3.60896C29.5244 5.39165 32.7999 6.98235 33.4919 7.71383C34.5448 8.82771 34.5984 9.14537 34.2831 12.4326C33.832 17.1386 32.064 22.3953 29.8 25.7622C26.5354 30.6171 20.5643 35.2693 17.6123 35.2575C17.0074 35.2559 15.4319 34.6512 14.1107 33.9154ZM21.4383 31.2467C24.2888 29.3452 27.6053 25.3361 29.4477 21.5636C30.8046 18.7859 32.1224 13.4037 32.1224 10.6393V8.87136L24.9176 5.95565L17.7133 3.03995L10.5086 5.95565L3.30383 8.87136V10.7861C3.34737 16.1213 5.93316 22.8124 9.73737 27.3037C12.2617 30.2843 15.9945 32.936 17.6654 32.936C18.343 32.936 20.0365 32.1758 21.43 31.2467H21.4383ZM14.8345 26.6035C11.5437 23.7241 8.77281 18.4379 7.90406 13.3811L7.62102 11.7355L11.8263 10.0249C14.1395 9.08409 16.41 8.1799 16.872 8.01558C17.6567 7.73681 17.7129 8.40277 17.7129 18.0005C17.7129 24.5264 17.5387 28.2842 17.2339 28.2842C16.9726 28.2842 15.8905 27.5279 14.834 26.6035H14.8345ZM15.3113 17.3603V11.0882L13.0299 11.9533C10.2281 13.0156 10.0418 13.7664 11.6321 17.5802C12.6288 19.9696 14.7757 23.6183 15.1915 23.6293C15.2569 23.631 15.3091 20.81 15.3091 17.3603H15.3113Z" fill="#898989"/>
</svg>
