<svg width="36" height="36" viewBox="0 0 36 36" fill="none" xmlns="http://www.w3.org/2000/svg">
<path d="M6.91788 34.6552C6.21942 33.8682 6.24039 33.3414 7.19894 27.6832L8.00522 22.9076L4.12528 19.1207C0.0439797 15.1386 -0.267286 14.5736 0.841867 13.1762C1.34526 12.5427 2.14776 12.3133 6.09147 11.6762C8.65125 11.2635 10.9967 10.9155 11.3021 10.9054C11.6922 10.9054 12.5245 9.47031 14.103 6.11666C16.4778 1.06984 17.0953 0.371439 18.7997 0.807165C19.4865 0.983372 20.054 1.88096 22.0551 5.95364C23.3882 8.66726 24.6278 10.8873 24.8107 10.8873C25.7789 10.8873 34.111 12.2776 34.7369 12.5432C35.6892 12.9457 36.2207 14.33 35.7617 15.205C35.573 15.5621 33.8123 17.4467 31.8487 19.3889L28.2792 22.9207L29.1223 27.8628C29.5863 30.581 29.966 33.0607 29.966 33.3727C29.966 34.2009 28.7972 35.2575 27.8806 35.2575C27.4464 35.2575 25.0939 34.1938 22.6566 32.8941L18.2271 30.5312L13.634 32.8941C11.1091 34.1938 8.68481 35.2575 8.24853 35.2575C7.81435 35.2575 7.21404 34.986 6.91955 34.6552H6.91788ZM22.9146 30.4583C25.5486 31.8571 27.7015 32.954 27.699 32.8951C27.699 32.8348 27.2795 30.3742 26.7702 27.4246L25.8448 22.0618L29.692 18.3871C32.2413 15.9502 33.3979 14.6369 33.1235 14.489C32.897 14.3684 30.7483 14.016 28.3496 13.7066C25.9509 13.3948 23.7171 13.0665 23.3853 12.9704C22.9951 12.8545 21.9955 11.1328 20.5369 8.05389C19.3019 5.44642 18.2288 3.31297 18.1541 3.31297C18.0786 3.31297 16.9816 5.42478 15.7169 8.00557C14.4521 10.5869 13.3735 12.7475 13.3198 12.8074C13.2653 12.8677 10.9581 13.2502 8.18938 13.6568C5.42111 14.0643 3.07779 14.4774 2.98215 14.575C2.88986 14.6704 4.51499 16.4152 6.60241 18.448L10.3976 22.1423L9.65007 26.6417C9.23896 29.1163 8.8224 31.5718 8.72382 32.0981L8.54343 33.0546L13.3345 30.4839L18.126 27.9137L22.9146 30.4583Z" fill="#898989"/>
</svg>
