<svg width="35" height="35" viewBox="0 0 35 35" fill="none" xmlns="http://www.w3.org/2000/svg">
<path d="M11.6506 5.10344C11.4598 5.29878 11.353 5.561 11.353 5.83406C11.353 6.10712 11.4598 6.36935 11.6506 6.56469L22.3103 17.5L11.6506 28.4331C11.4598 28.6285 11.353 28.8907 11.353 29.1637C11.353 29.4368 11.4598 29.699 11.6506 29.8944C11.7434 29.9896 11.8543 30.0653 11.9767 30.117C12.0992 30.1687 12.2308 30.1954 12.3638 30.1954C12.4967 30.1954 12.6283 30.1687 12.7508 30.117C12.8733 30.0653 12.9842 29.9896 13.0769 29.8944L24.4125 18.2634C24.6116 18.0592 24.723 17.7852 24.723 17.5C24.723 17.2148 24.6116 16.9408 24.4125 16.7366L13.0769 5.10563C12.9842 5.01037 12.8733 4.93467 12.7508 4.88297C12.6283 4.83128 12.4967 4.80465 12.3638 4.80465C12.2308 4.80465 12.0992 4.83128 11.9767 4.88297C11.8543 4.93467 11.7434 5.01037 11.6506 5.10563V5.10344Z" fill="#898989"/>
</svg>
