<svg width="13" height="11" viewBox="0 0 13 11" fill="none" xmlns="http://www.w3.org/2000/svg">
<path d="M5.879 9.82578L5.87826 9.82517C4.19385 8.41652 2.83813 7.2816 1.89751 6.22103C0.961013 5.1651 0.5 4.25204 0.5 3.297C0.5 1.76416 1.81026 0.5 3.575 0.5C4.5691 0.5 5.52057 0.929174 6.13265 1.59206L6.5 1.9899L6.86735 1.59206C7.47943 0.929174 8.4309 0.5 9.425 0.5C11.1897 0.5 12.5 1.76416 12.5 3.297C12.5 4.25205 12.039 5.16513 11.1024 6.2219C10.1618 7.2832 8.80621 8.41946 7.12197 9.83097C7.12176 9.83114 7.12155 9.83132 7.12134 9.8315L6.50122 10.3482L5.879 9.82578Z" stroke="#898989"/>
</svg>
