<?xml version="1.0" standalone="no"?>
<!DOCTYPE svg PUBLIC "-//W3C//DTD SVG 20010904//EN"
 "http://www.w3.org/TR/2001/REC-SVG-20010904/DTD/svg10.dtd">
<svg version="1.0" xmlns="http://www.w3.org/2000/svg"
 width="382.000000pt" height="420.000000pt" viewBox="0 0 382.000000 420.000000"
 preserveAspectRatio="xMidYMid meet">

<g transform="translate(0.000000,420.000000) scale(0.100000,-0.100000)"
fill="#ffffff" stroke="none">
<path d="M2430 3196 c0 -2 15 -29 34 -60 167 -278 211 -690 111 -1041 -48
-167 -162 -375 -283 -510 -399 -451 -1072 -588 -1603 -326 -68 33 -77 35 -67
17 23 -44 109 -144 196 -228 368 -355 901 -468 1389 -297 621 218 994 854 883
1503 -48 282 -164 508 -369 718 -103 107 -291 251 -291 224z"/>
<path d="M1504 2969 c-58 -60 -88 -77 -146 -85 -37 -5 -55 0 -120 33 -43 22
-78 37 -78 33 0 -3 27 -32 59 -64 89 -88 97 -146 38 -263 -36 -70 -33 -76 11
-26 92 103 163 118 276 58 37 -19 69 -35 73 -35 3 0 -19 27 -50 59 -31 33 -61
71 -67 86 -20 52 -12 110 25 181 19 37 34 69 32 70 -2 2 -25 -19 -53 -47z"/>
<path d="M1627 2405 c-3 -16 -9 -48 -12 -70 -30 -198 -77 -250 -255 -281 -93
-15 -108 -20 -99 -28 2 -2 47 -12 99 -20 176 -31 227 -84 251 -264 15 -113 25
-130 34 -61 31 237 84 300 283 329 45 7 82 16 82 21 0 4 -21 11 -47 14 -148
19 -208 45 -253 106 -27 39 -43 91 -68 234 -8 47 -9 48 -15 20z"/>
</g>
</svg>
