<?xml version="1.0" encoding="UTF-8"?>
<!-- Generator: Adobe Illustrator 23.0.1, SVG Export Plug-In . SVG Version: 6.00 Build 0)  -->
<svg version="1.1" id="Layer_1" xmlns="http://www.w3.org/2000/svg" xmlns:xlink="http://www.w3.org/1999/xlink" x="0px" y="0px" viewBox="0 0 758.932 215.4" style="enable-background:new 0 0 758.932 215.4;" xml:space="preserve">
<style type="text/css">
	.st0{fill-rule:evenodd;clip-rule:evenodd;fill:#FFFFFF;stroke:#FFFFFF;stroke-width:0.5669;stroke-miterlimit:22.9256;}
	.st1{fill-rule:evenodd;clip-rule:evenodd;fill:#FFED00;}
	.st2{fill-rule:evenodd;clip-rule:evenodd;fill:#00963F;}
	.st3{fill-rule:evenodd;clip-rule:evenodd;fill:#009EE3;}
	.st4{fill-rule:evenodd;clip-rule:evenodd;fill:#E3000F;}
	.st5{fill-rule:evenodd;clip-rule:evenodd;fill:#FFFFFF;}
</style>
<g>
	<path class="st0" d="M100.933,140.69l38.918-6.862c13.427-2.847,16.902,9.652,12.795,15.408l-44.867,62.897   c-2.218,3.157-6.61,3.936-9.771,1.723l-94.74-66.338c-3.161-2.213-3.936-6.61-1.723-9.771l66.338-94.74   c2.213-3.161,6.61-3.936,9.771-1.723l70.351,49.254l-10.671,15.24l-55.102-38.53c-3.162-2.211-7.558-1.438-9.771,1.723   l-44.952,64.199c-2.213,3.161-1.438,7.557,1.723,9.771l64.199,44.953c3.161,2.213,7.558,1.438,9.771-1.723l21.528-30.745   l-20.559,3.625l-8.774,1.547c-3.8,0.67-7.457-1.891-8.127-5.691l-0.8-4.541c-0.67-3.8,1.891-7.457,5.691-8.127L100.933,140.69   L100.933,140.69z M144.632,110.888c3.161,2.213,7.557,1.438,9.771-1.723l2.645-3.777c2.213-3.16,1.447-7.571-1.723-9.77l-7.32-5.08   l-10.671,15.24L144.632,110.888L144.632,110.888z M70.147,110.539c0,2.383,1.95,4.333,4.333,4.333h11.716v11.717   c0,2.383,1.95,4.333,4.333,4.333h3.945c2.383,0,4.333-1.95,4.333-4.333v-11.717h11.718c2.383,0,4.333-1.95,4.333-4.333v-3.944   c0-2.383-1.95-4.333-4.333-4.333H98.806V90.545c0-2.383-1.95-4.333-4.333-4.333h-3.945c-2.383,0-4.333,1.95-4.333,4.333v11.716   H74.48c-2.383,0-4.333,1.95-4.333,4.333V110.539z"/>
	<g>
		<path class="st1" d="M205.607,62.622c1.721-3.445,5.909-4.843,9.354-3.122c3.445,1.721,4.843,5.909,3.122,9.354    c-1.721,3.445-5.909,4.843-9.354,3.122C205.283,70.255,203.886,66.067,205.607,62.622z"/>
		<path class="st2" d="M230.05,74.832c1.721-3.445,5.909-4.843,9.354-3.122c3.445,1.721,4.843,5.909,3.122,9.354    s-5.909,4.843-9.354,3.122C229.727,82.465,228.329,78.277,230.05,74.832z"/>
		<path class="st3" d="M214.845,90.303c-3.445-1.721-4.843-5.909-3.122-9.354c1.721-3.445,5.909-4.843,9.354-3.122    c3.445,1.721,4.843,5.909,3.122,9.354C222.478,90.626,218.29,92.024,214.845,90.303z"/>
		<path class="st4" d="M227.056,65.859c-3.445-1.721-4.843-5.909-3.122-9.354c1.721-3.445,5.909-4.843,9.354-3.122    c3.445,1.721,4.843,5.909,3.122,9.354C234.689,66.183,230.501,67.58,227.056,65.859z"/>
		<path class="st0" d="M168.063,91.582l5.11-7.298l-15.24-10.671l-5.141,7.277c-2.227,3.151-1.437,7.558,1.723,9.77l3.777,2.645    C161.452,95.518,165.849,94.743,168.063,91.582L168.063,91.582z M219.319,104.641l8.774-1.547c3.799-0.67,7.457,1.891,8.127,5.691    l0.801,4.541c0.67,3.8-1.891,7.457-5.691,8.127L222.556,123l-20.559,3.625l30.745,21.528c3.161,2.213,7.558,1.438,9.771-1.723    l44.953-64.199c2.213-3.161,1.438-7.557-1.723-9.771l-64.199-44.952c-3.161-2.214-7.555-1.437-9.771,1.723l-38.6,55.053    l-15.24-10.671l49.263-70.345c2.213-3.161,6.61-3.936,9.771-1.723l94.74,66.338c3.161,2.213,3.936,6.61,1.723,9.771l-66.338,94.74    c-2.213,3.161-6.606,3.931-9.771,1.723l-63.673-43.758c-5.827-4.005-6.837-16.938,6.754-18.855L219.319,104.641z"/>
	</g>
</g>
<path class="st5" d="M369.622,135.569c-4.152,0-7.798-0.83-10.938-2.491c-3.14-1.661-5.579-3.996-7.317-7.006  c-1.739-3.01-2.608-6.487-2.608-10.431V99.682c0-3.944,0.869-7.408,2.608-10.393c1.738-2.984,4.178-5.306,7.317-6.967  c3.14-1.66,6.786-2.491,10.938-2.491c4.1,0,7.733,0.792,10.899,2.375c3.166,1.583,5.618,3.749,7.357,6.5  c1.738,2.75,2.608,5.787,2.608,9.108c0,0.882-0.467,1.323-1.401,1.323h-10.12c-0.934,0-1.401-0.156-1.401-0.467v-0.467  c0-2.024-0.714-3.75-2.141-5.177c-1.427-1.427-3.361-2.141-5.8-2.141c-2.387,0-4.308,0.778-5.761,2.336  c-1.453,1.557-2.18,3.581-2.18,6.072v16.737c0,2.491,0.804,4.515,2.413,6.072c1.609,1.557,3.633,2.336,6.072,2.336  c2.283,0,4.126-0.61,5.527-1.829c1.401-1.22,2.102-2.919,2.102-5.099v-2.024c0-0.363-0.182-0.545-0.545-0.545h-7.162  c-0.415,0-0.753-0.129-1.012-0.389c-0.26-0.259-0.389-0.597-0.389-1.012v-7.629c0-0.415,0.13-0.753,0.389-1.012  c0.259-0.26,0.597-0.389,1.012-0.389h18.995c0.415,0,0.752,0.13,1.012,0.389c0.259,0.259,0.389,0.597,0.389,1.012v10.12  c0,3.892-0.869,7.318-2.608,10.276c-1.738,2.958-4.178,5.242-7.318,6.85C377.42,134.765,373.774,135.569,369.622,135.569  L369.622,135.569z M413.216,94.077c3.425,0,6.539,0.584,9.342,1.751c2.802,1.168,5.008,2.777,6.617,4.827  c1.609,2.05,2.413,4.32,2.413,6.811v26.079c0,0.415-0.129,0.752-0.389,1.012c-0.259,0.259-0.597,0.389-1.012,0.389h-10.12  c-0.415,0-0.753-0.13-1.012-0.389c-0.26-0.26-0.389-0.597-0.389-1.012v-1.557c0-0.259-0.065-0.415-0.195-0.467  c-0.13-0.052-0.272,0.026-0.428,0.234c-2.076,2.543-5.424,3.814-10.042,3.814c-4.1,0-7.37-0.973-9.809-2.919  c-2.439-1.946-3.659-4.813-3.659-8.602c0-3.996,1.388-7.084,4.165-9.264c2.776-2.18,6.786-3.27,12.027-3.27h7.395  c0.363,0,0.545-0.182,0.545-0.545v-1.323c0-1.401-0.454-2.504-1.362-3.309c-0.908-0.804-2.193-1.206-3.853-1.206  c-1.194,0-2.219,0.194-3.075,0.584c-0.856,0.389-1.466,0.921-1.829,1.596c-0.259,0.363-0.506,0.636-0.74,0.818  c-0.233,0.181-0.532,0.246-0.895,0.194L396.479,107c-0.934-0.104-1.35-0.467-1.245-1.09c0.259-2.232,1.193-4.243,2.802-6.033  c1.609-1.79,3.724-3.205,6.345-4.243C407.001,94.596,409.947,94.077,413.216,94.077L413.216,94.077z M411.893,126.306  c1.972,0,3.594-0.506,4.865-1.518c1.272-1.012,1.907-2.348,1.907-4.009v-1.713c0-0.363-0.182-0.545-0.545-0.545h-4.515  c-1.972,0-3.49,0.337-4.554,1.012c-1.064,0.675-1.596,1.687-1.596,3.036c0,1.142,0.389,2.05,1.168,2.724  C409.402,125.968,410.491,126.306,411.893,126.306L411.893,126.306z M484.212,94.077c4.048,0,7.214,1.246,9.497,3.737  c2.283,2.491,3.425,5.994,3.425,10.509v25.222c0,0.415-0.13,0.752-0.389,1.012c-0.259,0.259-0.597,0.389-1.012,0.389h-10.042  c-0.415,0-0.752-0.13-1.012-0.389c-0.259-0.26-0.389-0.597-0.389-1.012v-22.42c0-1.765-0.454-3.205-1.362-4.321  c-0.908-1.116-2.115-1.674-3.62-1.674c-1.505,0-2.738,0.545-3.698,1.635c-0.96,1.09-1.44,2.543-1.44,4.359v22.42  c0,0.415-0.13,0.752-0.389,1.012c-0.26,0.259-0.597,0.389-1.012,0.389h-10.12c-0.415,0-0.752-0.13-1.012-0.389  c-0.259-0.26-0.389-0.597-0.389-1.012v-22.42c0-1.765-0.48-3.205-1.44-4.321c-0.96-1.116-2.193-1.674-3.698-1.674  c-1.401,0-2.569,0.441-3.503,1.323c-0.934,0.882-1.505,2.05-1.713,3.503v23.588c0,0.415-0.13,0.752-0.389,1.012  c-0.26,0.259-0.597,0.389-1.012,0.389h-10.12c-0.415,0-0.753-0.13-1.012-0.389c-0.259-0.26-0.389-0.597-0.389-1.012V96.101  c0-0.415,0.13-0.753,0.389-1.012c0.26-0.259,0.597-0.389,1.012-0.389h10.12c0.415,0,0.752,0.13,1.012,0.389  c0.259,0.259,0.389,0.597,0.389,1.012v2.725c0,0.259,0.065,0.402,0.195,0.428c0.13,0.026,0.272-0.065,0.428-0.272  c2.076-3.269,5.346-4.904,9.809-4.904c2.543,0,4.787,0.558,6.734,1.674c1.946,1.116,3.464,2.738,4.554,4.865  c0.104,0.208,0.22,0.299,0.35,0.273c0.13-0.026,0.247-0.143,0.35-0.35C475.493,96.231,479.126,94.077,484.212,94.077L484.212,94.077  z M523.602,124.593c1.609,0,3.101-0.247,4.476-0.74c1.375-0.493,2.53-1.155,3.464-1.985c0.311-0.363,0.649-0.545,1.012-0.545  c0.311,0,0.623,0.181,0.934,0.545l4.827,5.76c0.311,0.363,0.467,0.701,0.467,1.012c0,0.363-0.156,0.701-0.467,1.012  c-1.765,1.868-3.996,3.322-6.695,4.359c-2.699,1.038-5.579,1.557-8.641,1.557c-3.529,0-6.656-0.636-9.381-1.907  c-2.724-1.272-4.969-3.049-6.734-5.332c-2.854-3.633-4.281-8.252-4.281-13.857c0-2.491,0.285-4.827,0.856-7.006  c1.142-4.048,3.373-7.305,6.695-9.77c3.321-2.465,7.214-3.698,11.677-3.698c5.19,0,9.381,1.609,12.572,4.826  c3.192,3.218,5.281,7.707,6.267,13.467c0.208,1.453,0.363,3.036,0.467,4.749c0,0.934-0.467,1.401-1.401,1.401h-23.51  c-0.156,0-0.298,0.052-0.428,0.156c-0.13,0.104-0.169,0.259-0.117,0.467l0.467,1.557c0.519,1.246,1.427,2.219,2.725,2.919  C520.151,124.243,521.734,124.593,523.602,124.593L523.602,124.593z M521.578,105.131c-2.647,0-4.437,1.271-5.372,3.814  c-0.208,0.519-0.337,0.908-0.389,1.168v0.156c0,0.311,0.182,0.467,0.545,0.467h10.665c0.208,0,0.35-0.065,0.428-0.195  c0.078-0.13,0.091-0.272,0.039-0.428l-0.311-1.012c-0.415-1.246-1.09-2.218-2.024-2.919  C524.225,105.481,523.031,105.131,521.578,105.131L521.578,105.131z M566.885,135.569c-4.152,0-7.798-0.83-10.938-2.491  c-3.14-1.661-5.579-3.996-7.317-7.006c-1.739-3.01-2.608-6.487-2.608-10.431V99.682c0-3.944,0.869-7.408,2.608-10.393  c1.738-2.984,4.178-5.306,7.317-6.967c3.14-1.66,6.786-2.491,10.938-2.491c4.1,0,7.733,0.792,10.899,2.375  c3.166,1.583,5.618,3.749,7.356,6.5c1.739,2.75,2.608,5.787,2.608,9.108c0,0.882-0.467,1.323-1.401,1.323h-10.12  c-0.934,0-1.401-0.156-1.401-0.467v-0.467c0-2.024-0.714-3.75-2.141-5.177c-1.427-1.427-3.36-2.141-5.8-2.141  c-2.387,0-4.307,0.778-5.761,2.336c-1.453,1.557-2.18,3.581-2.18,6.072v16.737c0,2.491,0.804,4.515,2.413,6.072  c1.609,1.557,3.633,2.336,6.072,2.336c2.283,0,4.126-0.61,5.527-1.829c1.401-1.22,2.102-2.919,2.102-5.099v-2.024  c0-0.363-0.182-0.545-0.545-0.545h-7.162c-0.415,0-0.753-0.129-1.012-0.389c-0.26-0.259-0.389-0.597-0.389-1.012v-7.629  c0-0.415,0.13-0.753,0.389-1.012c0.259-0.26,0.597-0.389,1.012-0.389h18.995c0.415,0,0.752,0.13,1.012,0.389  c0.259,0.259,0.389,0.597,0.389,1.012v10.12c0,3.892-0.869,7.318-2.608,10.276c-1.738,2.958-4.178,5.242-7.318,6.85  C574.683,134.765,571.037,135.569,566.885,135.569L566.885,135.569z M611.958,135.569c-4.671,0-8.628-1.245-11.872-3.737  c-3.244-2.491-5.436-5.864-6.578-10.12c-0.623-2.128-0.934-4.463-0.934-7.006c0-2.595,0.337-5.112,1.012-7.551  c1.194-4.1,3.412-7.305,6.656-9.614c3.244-2.31,7.175-3.464,11.794-3.464c4.567,0,8.433,1.155,11.599,3.464  c3.166,2.309,5.371,5.488,6.617,9.536c0.727,2.335,1.09,4.826,1.09,7.473c0,2.387-0.285,4.671-0.856,6.851  c-1.09,4.359-3.269,7.811-6.539,10.354C620.677,134.298,616.681,135.569,611.958,135.569L611.958,135.569z M611.958,124.515  c1.505,0,2.764-0.48,3.776-1.44c1.012-0.96,1.725-2.271,2.141-3.931c0.311-1.349,0.467-2.828,0.467-4.437  c0-1.557-0.182-3.062-0.545-4.515c-0.415-1.609-1.116-2.854-2.102-3.737c-0.986-0.882-2.231-1.323-3.737-1.323  c-1.557,0-2.815,0.441-3.775,1.323c-0.96,0.882-1.648,2.128-2.063,3.737c-0.363,1.142-0.545,2.647-0.545,4.515  c0,1.609,0.156,3.088,0.467,4.437c0.467,1.661,1.194,2.971,2.18,3.931C609.208,124.035,610.453,124.515,611.958,124.515  L611.958,124.515z M655.396,135.569c-4.671,0-8.628-1.245-11.871-3.737c-3.244-2.491-5.436-5.864-6.578-10.12  c-0.623-2.128-0.934-4.463-0.934-7.006c0-2.595,0.337-5.112,1.012-7.551c1.194-4.1,3.412-7.305,6.656-9.614  c3.244-2.31,7.175-3.464,11.794-3.464c4.567,0,8.433,1.155,11.599,3.464c3.166,2.309,5.371,5.488,6.617,9.536  c0.727,2.335,1.09,4.826,1.09,7.473c0,2.387-0.286,4.671-0.856,6.851c-1.09,4.359-3.269,7.811-6.539,10.354  C664.115,134.298,660.119,135.569,655.396,135.569L655.396,135.569z M655.396,124.515c1.505,0,2.764-0.48,3.776-1.44  c1.012-0.96,1.725-2.271,2.141-3.931c0.311-1.349,0.467-2.828,0.467-4.437c0-1.557-0.182-3.062-0.545-4.515  c-0.415-1.609-1.116-2.854-2.102-3.737c-0.986-0.882-2.231-1.323-3.737-1.323c-1.557,0-2.815,0.441-3.776,1.323  c-0.96,0.882-1.648,2.128-2.063,3.737c-0.363,1.142-0.545,2.647-0.545,4.515c0,1.609,0.156,3.088,0.467,4.437  c0.467,1.661,1.194,2.971,2.18,3.931C652.646,124.035,653.891,124.515,655.396,124.515L655.396,124.515z M704.518,81.855  c0-0.415,0.13-0.753,0.389-1.012c0.26-0.26,0.597-0.39,1.012-0.39h10.12c0.415,0,0.752,0.13,1.012,0.39  c0.259,0.259,0.389,0.597,0.389,1.012v51.69c0,0.415-0.13,0.752-0.389,1.012c-0.26,0.259-0.597,0.389-1.012,0.389h-10.12  c-0.415,0-0.752-0.13-1.012-0.389c-0.259-0.26-0.389-0.597-0.389-1.012v-1.868c0-0.26-0.065-0.415-0.195-0.467  c-0.13-0.052-0.272,0.026-0.428,0.234c-1.972,2.75-4.93,4.126-8.874,4.126c-3.373,0-6.487-1.116-9.342-3.347  c-2.854-2.231-4.8-5.112-5.839-8.641c-0.83-2.543-1.246-5.527-1.246-8.952c0-3.685,0.545-6.954,1.635-9.809  c1.194-3.218,3.127-5.826,5.8-7.824c2.672-1.998,5.67-2.997,8.991-2.997c3.944,0,6.902,1.194,8.874,3.581  c0.156,0.207,0.298,0.285,0.428,0.233c0.13-0.052,0.195-0.207,0.195-0.467V81.855L704.518,81.855z M703.116,121.245  c0.882-1.661,1.323-3.788,1.323-6.383c0-2.854-0.467-5.138-1.401-6.85c-1.09-1.765-2.595-2.647-4.515-2.647  c-2.024,0-3.581,0.908-4.671,2.725c-0.934,1.713-1.401,3.97-1.401,6.773c0,2.647,0.441,4.8,1.323,6.461  c1.09,1.92,2.673,2.88,4.749,2.88C700.496,124.204,702.026,123.218,703.116,121.245L703.116,121.245z M741.261,135.569  c-3.685,0-6.89-0.506-9.614-1.518c-2.725-1.012-4.826-2.439-6.306-4.282c-1.479-1.842-2.219-3.957-2.219-6.345v-0.389  c0-0.415,0.13-0.752,0.389-1.012c0.26-0.259,0.597-0.389,1.012-0.389h9.575c0.934,0,1.401,0.156,1.401,0.467v0.467  c0,0.986,0.532,1.803,1.596,2.452c1.064,0.649,2.426,0.973,4.087,0.973c1.453,0,2.621-0.247,3.503-0.74  c0.883-0.493,1.323-1.155,1.323-1.985c0-0.83-0.467-1.44-1.401-1.829c-0.934-0.39-2.414-0.766-4.437-1.129  c-3.269-0.623-5.916-1.375-7.94-2.257c-2.595-1.09-4.684-2.465-6.267-4.126c-1.583-1.661-2.374-3.892-2.374-6.695  c0-4.048,1.57-7.253,4.71-9.614c3.14-2.361,7.278-3.542,12.416-3.542c3.477,0,6.526,0.558,9.147,1.674  c2.621,1.116,4.658,2.686,6.111,4.71c1.453,2.024,2.18,4.359,2.18,7.006c0,0.26-0.13,0.48-0.389,0.662  c-0.259,0.181-0.597,0.272-1.012,0.272h-9.264c-0.934,0-1.401-0.156-1.401-0.467v-0.467c0-0.986-0.467-1.79-1.401-2.413  c-0.934-0.623-2.206-0.934-3.814-0.934c-1.453,0-2.634,0.247-3.542,0.74c-0.908,0.493-1.362,1.181-1.362,2.063  c0,0.882,0.493,1.518,1.479,1.907c0.986,0.389,2.647,0.817,4.982,1.285c3.166,0.623,5.294,1.116,6.383,1.479  c3.166,1.038,5.644,2.439,7.434,4.204c1.79,1.764,2.686,4.126,2.686,7.084c0,4.048-1.596,7.175-4.788,9.38  C750.953,134.466,746.658,135.569,741.261,135.569z"/>
</svg>