<svg width="24" height="24" viewBox="0 0 24 24" fill="none" xmlns="http://www.w3.org/2000/svg">
<path d="M10.75 21.9999H4.91699C3.76649 21.9988 2.83409 21.0664 2.83299 19.9159V10.2159C2.0162 9.63629 1.76189 8.53744 2.24099 7.65791C3.14099 6.04991 4.05899 4.46491 4.96199 2.94591C5.32416 2.35291 5.97117 1.99371 6.66599 1.99983C7.08951 2.00414 7.50148 2.13855 7.84599 2.38491L7.86999 2.39991C8.28199 2.63991 12.262 5.00891 15.461 6.91191L18.3 8.59991L18.43 8.67691C20.648 9.98791 21.147 10.2859 21.175 10.3049C21.9915 10.883 22.2426 11.9827 21.758 12.8579C20.875 14.4349 19.958 16.0199 19.037 17.5699C18.6795 18.1565 18.0439 18.5163 17.357 18.5209C17.2224 18.521 17.0882 18.5059 16.957 18.4759C16.841 18.5449 16.201 18.9559 15.39 19.4759C13.947 20.4009 11.975 21.6659 11.747 21.7829C11.4394 21.9412 11.0956 22.0161 10.75 21.9999ZM4.49999 13.0299V19.9159C4.49999 20.1462 4.68669 20.3329 4.91699 20.3329H8.73999C7.28699 17.8799 5.86099 15.4219 4.49999 13.0299ZM5.85799 12.0299C6.25799 12.7169 10.574 20.1619 10.61 20.2119C10.6668 20.2858 10.7548 20.329 10.848 20.3289C10.8971 20.3289 10.9456 20.317 10.989 20.2939C11.124 20.2179 15.183 17.6099 15.223 17.5839C14.909 17.3989 12.637 16.0449 10.231 14.6119L5.83799 11.9999L5.84499 12.0109L5.85499 12.0279V12.0339L5.85799 12.0299ZM6.33199 3.89991C5.52399 5.19991 3.71599 8.42791 3.69199 8.48691C3.6327 8.62856 3.6853 8.79229 3.81599 8.87291C3.94899 8.95191 17.17 16.8289 17.296 16.8489C17.312 16.8501 17.328 16.8501 17.344 16.8489C17.4526 16.8493 17.5536 16.7928 17.61 16.6999C18.424 15.3329 20.299 12.0429 20.304 12.0329C20.3619 11.8907 20.3092 11.7274 20.179 11.6459C20.052 11.5699 6.85599 3.72791 6.77099 3.69091C6.73236 3.67464 6.69091 3.66615 6.64899 3.66591C6.54368 3.66648 6.44567 3.71981 6.38799 3.80791L6.38099 3.81991L6.37299 3.83191L6.36099 3.85191V3.85691L6.34599 3.88091L6.33099 3.89991H6.33199ZM7.68499 9.38991C6.76554 9.38936 6.02036 8.64403 6.02 7.72458C6.01963 6.80512 6.76421 6.0592 7.68366 6.05791C8.60312 6.05663 9.34978 6.80046 9.35199 7.71991C9.35089 8.64011 8.60519 9.38581 7.68499 9.38691V9.38991Z" fill="white"/>
</svg>
